<?xml version="1.0" encoding="utf-8"?>
<!-- Generator: Adobe Illustrator 27.2.0, SVG Export Plug-In . SVG Version: 6.00 Build 0)  -->
<svg version="1.1" id="Layer_1" xmlns="http://www.w3.org/2000/svg" xmlns:xlink="http://www.w3.org/1999/xlink" x="0px" y="0px"
	 viewBox="0 0 1629 988" style="enable-background:new 0 0 1629 988;" xml:space="preserve">
<style type="text/css">
	.st0{fill:#006A1D;}
	.st1{fill:#FFC50A;}
	.st2{fill:#FF745F;}
	.st3{fill:#40B9FF;}
	.st4{fill:#FF0A3A;}
	.st5{fill:#760034;}
	.st6{fill:#00B048;}
	.st7{fill:#7636FF;}
</style>
<g>
	<path class="st0" d="M398.3,16.7v219.7H23.7V16.7H398.3 M407.9,7H14v239.1h393.9V7L407.9,7z"/>
</g>
<g>
	<path class="st1" d="M799.9,16.7v219.7H425.4V16.7H799.9 M809.6,7H415.7v239.1h393.9V7L809.6,7z"/>
</g>
<g>
	<path class="st2" d="M1201.6,16.7v219.7H827V16.7H1201.6 M1211.2,7H817.3v239.1h393.9V7L1211.2,7z"/>
</g>
<g>
	<path class="st3" d="M1604.3,16.7v219.7h-374.6V16.7H1604.3 M1614,7h-393.9v239.1H1614V7L1614,7z"/>
</g>
<g>
	<path class="st4" d="M398.3,261.3V481H23.7V261.3H398.3 M407.9,251.6H14v239.1h393.9V251.6L407.9,251.6z"/>
</g>
<g>
	<path class="st5" d="M797.7,262.4v219.7H423.2V262.4H797.7 M807.4,252.7H413.5v239.1h393.9V252.7L807.4,252.7z"/>
</g>
<g>
	<path class="st6" d="M1201.6,262.4v219.7H827V262.4H1201.6 M1211.2,252.7H817.3v239.1h393.9V252.7L1211.2,252.7z"/>
</g>
<g>
	<path class="st7" d="M1604.3,262.4v219.7h-374.6V262.4H1604.3 M1614,252.7h-393.9v239.1H1614V252.7L1614,252.7z"/>
</g>
<g>
	<path class="st0" d="M1603.2,753.3V973h-374.6V753.3H1603.2 M1612.9,743.6H1219v239.1h393.9V743.6L1612.9,743.6z"/>
</g>
<g>
	<path class="st1" d="M1200.4,753.3V973H825.9V753.3H1200.4 M1210.1,743.6H816.2v239.1h393.9V743.6L1210.1,743.6z"/>
</g>
<g>
	<path class="st2" d="M798.8,750.5v219.7H424.2V750.5H798.8 M808.5,740.8H414.6v239.1h393.9V740.8L808.5,740.8z"/>
</g>
<g>
	<path class="st3" d="M398.3,750.5v219.7H23.7V750.5H398.3 M407.9,740.8H14v239.1h393.9V740.8L407.9,740.8z"/>
</g>
<g>
	<path class="st4" d="M1603.2,507.6v219.7h-374.6V507.6H1603.2 M1612.9,497.9H1219V737h393.9V497.9L1612.9,497.9z"/>
</g>
<g>
	<path class="st5" d="M1200.4,507.6v219.7H825.9V507.6H1200.4 M1210.1,497.9H816.2V737h393.9V497.9L1210.1,497.9z"/>
</g>
<g>
	<path class="st6" d="M798.8,507v219.7H424.3V507H798.8 M808.5,497.3H414.6v239.1h393.9V497.3L808.5,497.3z"/>
</g>
<g>
	<path class="st7" d="M398.3,505.9v219.7H23.7V505.9H398.3 M407.9,496.2H14v239.1h393.9V496.2L407.9,496.2z"/>
</g>
</svg>
